<svg xmlns="http://www.w3.org/2000/svg" viewBox="0 0 151.62 209.09"><title>pop-in bob</title><g id="b7851b38-107a-4157-abc6-ccce60047268" data-name="Layer 2"><g id="f3927c4f-6e58-4dc4-9e4e-b75351312e38" data-name="Layer 1"><path d="M131.85,107.36a2,2,0,0,1,.54,1.12,2.06,2.06,0,0,0-.54-1.17,2.89,2.89,0,0,0-2.46-.3A2.86,2.86,0,0,1,131.85,107.36Z" style="fill:none"/><path d="M129.78,115.83l0,0,0,0a38.7,38.7,0,0,0-.56-8.73h0A38.57,38.57,0,0,1,129.78,115.83Z" style="fill:none"/><path d="M131.58,167.11l.06,0c4.25-8.45,11.9-17.61,20-24.84v-.06C143.55,149.47,135.89,158.63,131.58,167.11Z" style="fill:none"/><path d="M62.83,176.68a2.22,2.22,0,0,0,.43.62h0a2,2,0,0,1-.43-.61Z" style="fill:none"/><path d="M121.59,101.61c-2.31,2.4-4.36,7.45-5.42,13.86-.1.11-.18.23-.28.34l.3-.37C117.25,109.06,119.28,104,121.59,101.61Z" style="fill:none"/><path d="M92.2,156.69c3.22-.92,12.33-3.48,15.69-3.69l-6.27-6.66C98.1,150.44,93,155.85,92.2,156.69Z" style="fill:none"/><path d="M63.18,169.36c.54,6.23,5.5,8.37,9.58,9.51,5.23,1.45,11.36.75,17.49.11v0c-6.12.63-12.28,1.31-17.47-.12-4.08-1.13-9-3.27-9.57-9.5a97.14,97.14,0,0,1,9-20.78,98.44,98.44,0,0,0-9,20.79l0,.11,0,0Z" style="fill:none"/><path d="M102.52,142.55l0,0a.25.25,0,0,0-.12,0,7.4,7.4,0,0,0-1.62,1.54l-.77.83.79-.81C99,146,95.24,150,87.17,158.74c3.18-3.43,5.67-6.15,7.65-8.3l-7.67,8.28-2.26,1.17c-1.43.77-2.91,1.63-4.4,2.52,1.49-.9,3-1.71,4.44-2.49l2.25-1.17C95.33,150.12,99,146,100.76,144.1a7,7,0,0,1,1.63-1.54c.08,0,.14,0,.19.06l0,0Z" style="fill:none"/><path d="M62.46,175.63a7.22,7.22,0,0,1-.08-.8v-.25a18.54,18.54,0,0,1,.58-4.45l.21-.7,0,0-.2.66a18.54,18.54,0,0,0-.58,4.45v.25a7.22,7.22,0,0,0,.08.8,1.1,1.1,0,0,0,.06.26,2.92,2.92,0,0,0,.22.71h0a3.44,3.44,0,0,1-.22-.71A1.1,1.1,0,0,1,62.46,175.63Z" style="fill:none"/><path d="M113.15,153.25a3.13,3.13,0,0,1-1.56-.92,3.29,3.29,0,0,0,1.69,1,18.67,18.67,0,0,1,5.13,2.84l-.13-.12A18.67,18.67,0,0,0,113.15,153.25Z" style="fill:none"/><path d="M99.17,139l0-.05c-2.52,8.52-10.47,17.26-20.72,24.71l-.68.43.77-.38c.47-.32.94-.62,1.43-.92-.49.3-1,.58-1.47.89C88.66,156.16,96.6,147.44,99.17,139Z" style="fill:none"/><path d="M94.67,178.55c.41-.05.86-.07,1.33-.11a50.53,50.53,0,0,1,7.28.07l1,.1a13.42,13.42,0,0,1,5,1.41l0,0a13.21,13.21,0,0,0-5.06-1.45c-.33,0-.65-.08-1-.1a50.41,50.41,0,0,0-7.27-.07c-.48,0-.93.06-1.34.11-1.33-5.79.57-12.29,4-18l-.55.55.53-.52C95.2,166.25,93.33,172.77,94.67,178.55Z" style="fill:none"/><path d="M95.13,114.85c-4,.72-8-3.22-5.58-12.62L90,101l-.09.1a37.76,37.76,0,0,1,2.9-5.88l-.27.31a37.42,37.42,0,0,0-2.73,5.58l.09-.09-.09.26.06-.07-.11.29v-.11l-.31.87c0,.11-.07.22-.11.33C87.09,111.84,91.1,115.68,95.13,114.85Z" style="fill:none"/><path d="M117.68,113.66a27.61,27.61,0,0,1,2.86-7.89,28.48,28.48,0,0,0-3,8l0-.06Z" style="fill:none"/><path d="M125.63,121.15l0,0c.75-.81,1.48-1.64,2.11-2.37.11-.93.18-1.86.22-2.79,0,.86-.1,1.73-.2,2.58a27.51,27.51,0,0,1-2.13,2.49,30.48,30.48,0,0,1-8.7,6.81,39.35,39.35,0,0,1,0-9.82s0-.08,0-.13l0,.24a39.43,39.43,0,0,0,0,9.83A30.69,30.69,0,0,0,125.63,121.15Z" style="fill:none"/><path d="M112.4,128.33h0c-1.44-1.4,0-5.65,3.31-10.22a.57.57,0,0,0,0-.13c-3.41,4.64-4.86,9-3.36,10.36Z" style="fill:none"/><path d="M114.65,186.6a11.77,11.77,0,0,0-4.05-5.86c-.11-.08-.24-.13-.35-.2a3.78,3.78,0,0,1,.33.22A12.12,12.12,0,0,1,114.65,186.6Z" style="fill:none"/><path d="M117.14,116.2v0Z" style="fill:none"/><path d="M117.71,131.32h0c.71,2,1.67,3.19,2.74,3.32l0-.07C119.41,134.49,118.46,133.34,117.71,131.32Z" style="fill:none"/><path d="M89.74,123.15l-1.89,2.29-2.2,2.85c.9-1.17,1.66-2.14,2.24-2.86Z" style="fill:none"/><path d="M98.2,113.33l-8.46,9.82,8.73-10.05Z" style="fill:none"/><path d="M121.73,186.05a12.66,12.66,0,0,0,3.74-10.87,24.12,24.12,0,0,0-3.62-9.15,24.1,24.1,0,0,1,3.6,9.17A12.69,12.69,0,0,1,121.73,186.05Z" style="fill:none"/><path d="M108.53,187.94h0a24.12,24.12,0,0,0-5.92-1.48,12.29,12.29,0,0,0,1.1,1.18,11,11,0,0,1-1.09-1.17A24.12,24.12,0,0,1,108.53,187.94Z" style="fill:none"/><path d="M120.43,134.57c2.34.31,5-4.16,6.46-10.49l0,0C125.37,130.43,122.71,134.84,120.43,134.57Z" style="fill:none"/><path d="M126.84,106.11h0c-.31.19-.6.41-.9.61C126.24,106.51,126.53,106.3,126.84,106.11Z" style="fill:none"/><path d="M117.28,81.3h0a25.68,25.68,0,0,0-9.94,1.84A26.62,26.62,0,0,1,117.28,81.3Z" style="fill:none"/><path d="M136.22,179.89l-.07-.07-.31-.41-.25-.24c-2-2.68-4.64-5.95-6.54-8.23-3.18-7.11-6.61-11.34-9.53-13.9l-.71-.46-.34-.31.46.43c3,2.49,6.69,6.87,10.14,14.41,1.9,2.28,4.52,5.55,6.54,8.23a2.73,2.73,0,0,0,.25.23l.31.42.07.07c4.75,6.4,10.12,14.13,15.38,22v-.16C146.36,194,141,186.29,136.22,179.89Z" style="fill:none"/><path d="M123.51,136.2a4,4,0,0,1-3,1.22c-1.77-.19-3.22-2.14-4.11-5.48-2.92,1.33-5.17,1.42-6.42.26s-1.28-3.36-.33-6.15c-1,2.8-.94,5,.3,6.17s3.53,1.05,6.43-.25c.88,3.33,2.33,5.29,4.11,5.48A4,4,0,0,0,123.51,136.2Z" style="fill:none"/><path d="M151.62,96.51V92.58c-.73.76-1.46,1.5-2.15,2.19Z" style="fill:none"/><path d="M21.78,50.34c-1.5,1.38-3,2.79-4.4,4.25C18.81,53.13,20.28,51.72,21.78,50.34Z" style="fill:none"/><path d="M67.72,67.44C54,82.23,49.55,102.3,42.36,109.93,49.55,102.3,54,82.22,67.72,67.44Z" style="fill:none"/><path d="M3,59.31H3Z" style="fill:none"/><path d="M40.68,12.51A51.5,51.5,0,0,0,22.29,25.64,51.62,51.62,0,0,1,40.68,12.51Z" style="fill:none"/><path d="M14.93,57.17a2.62,2.62,0,0,0,.22-.25c.73-.78,1.46-1.55,2.21-2.31-.75.76-1.48,1.53-2.21,2.31A2.62,2.62,0,0,1,14.93,57.17Z" style="fill:none"/><path d="M43.7,111.25a16.24,16.24,0,0,1-2,1.8,15,15,0,0,0,2-1.85,26.31,26.31,0,0,0,2.83-3.81h0A25.79,25.79,0,0,1,43.7,111.25Z" style="fill:none"/><path d="M121.45,83.74c-6.25-.91-14.81-.06-24.45,6.89l-.16.17C106.48,83.77,115.12,82.87,121.45,83.74Z" style="fill:none"/><path d="M80.78,111.55c0,.08.06.21.07.28l.08,0c0-.1,0-.24-.08-.31a27.08,27.08,0,0,1,7.46-25.26c.5-.5,1-1,1.54-1.45-.55.48-1.08,1-1.6,1.5A27.11,27.11,0,0,0,80.78,111.55Z" style="fill:none"/><path d="M107.78,19.7C84.19-2.5,44.38-4.48,19.3,22.58A59.67,59.67,0,0,0,3,59.28,59.62,59.62,0,0,1,19.35,22.62C44.41-4.42,84.19-2.46,107.78,19.7Z" style="fill:none"/><path d="M126.32,55.68a61.43,61.43,0,0,1-7.1,22.79l0,0,.06,0a61.44,61.44,0,0,0,7-22.85Z" style="fill:none"/><path d="M53,21.49c4.54-1.07,7.79-3.66,7.35-6C60.81,17.83,57.58,20.42,53,21.49Z" style="fill:none"/><path d="M91.35,160.35c.69-.2,1.4-.41,2.14-.66a64.38,64.38,0,0,1,16.37-3.28c1.67,0,3.83,1,6,2.77-2.17-1.75-4.31-2.81-6-2.79a64.8,64.8,0,0,0-16.37,3.27c-.74.26-1.45.46-2.14.67a68.31,68.31,0,0,0-17.45,6.49l0,0A68.61,68.61,0,0,1,91.35,160.35Z" style="fill:none"/><path d="M2.84,65.78a.83.83,0,0,1,0-.22,61.76,61.76,0,0,0,8.87,31.31A62.21,62.21,0,0,1,3.05,68.81Q2.92,67.31,2.84,65.78Z" style="fill:none"/><path d="M146,95.23c-.07.08-.1.14-.15.2l.14-.16c.59-.75,2.13-2.38,5.67-6.16v0C148.09,92.86,146.56,94.49,146,95.23Z" style="fill:none"/><path d="M73.18,140.41a22.2,22.2,0,0,1-13.69-7.91,21.65,21.65,0,0,0,3.94,3.83,22,22,0,0,0,9.72,4.14Z" style="fill:none"/><path d="M141.92,92.94h0c1.2,1,2.67,2.15,3.77,3v0C144.58,95.08,143.1,93.91,141.92,92.94Z" style="fill:none"/><path d="M43.28,16a13.48,13.48,0,0,1,7.17-3.38A13.37,13.37,0,0,0,43.28,16Z" style="fill:none"/><path d="M102.91,23.39l0,0,0,0Z" style="fill:none"/><path d="M46.13,21.69a15.63,15.63,0,0,0,6,0A15.83,15.83,0,0,1,46.13,21.69Z" style="fill:none"/><path d="M31.19,122.89a34.86,34.86,0,0,0,4.68.91,16.93,16.93,0,0,0,2.29.22c-.76-.06-1.53-.12-2.29-.22A34.86,34.86,0,0,1,31.19,122.89Z" style="fill:none"/><path d="M36,122.87a65.64,65.64,0,0,1-7.12-4.14A65.59,65.59,0,0,0,36,122.88c.81.4,1.63.79,2.47,1.16h0C37.64,123.67,36.82,123.27,36,122.87Z" style="fill:none"/><path d="M86.76,104.55v0a2,2,0,0,0-.1.21Z" style="fill:none"/><path d="M122.57,35.13c-1.35-16.57-14.16-31.65-34.84-31C108.43,3.5,121.17,18.62,122.57,35.13Z" style="fill:none"/><path d="M16,107.36a3.91,3.91,0,0,0-.76-.86A3.91,3.91,0,0,0,16,107.36Z" style="fill:none"/><path d="M10.94,107.7a32.18,32.18,0,0,1-2.09-4.54A32.18,32.18,0,0,0,10.94,107.7Z" style="fill:none"/><path d="M77.69,133.45c1.46-2.06,3-4.15,4.63-6.19a63.84,63.84,0,0,1-15.54,2.38A14.66,14.66,0,0,0,77.69,133.45Z" style="fill:none"/><path d="M84.58,101.85c-.26,4.12.2,6.8,1.23,4.8-1,1.81-1.4-.85-1.16-4.88,0-.19,0-.37.06-.55v-.14a24.42,24.42,0,0,1,6.11-12.66,25.24,25.24,0,0,1,13.86-7.53,25.22,25.22,0,0,0-14,7.55,24.43,24.43,0,0,0-6.11,12.65v.14c0,.18,0,.36-.06.56A29.13,29.13,0,0,0,85.47,114v0A29.19,29.19,0,0,1,84.58,101.85Z" style="fill:none"/><path d="M86,106.27a2,2,0,0,1-.1.21.69.69,0,0,0,.07-.15Z" style="fill:none"/><path d="M126.84,124.13a40,40,0,0,1-9.13,7.19c.75,2,1.7,3.17,2.72,3.25C122.71,134.84,125.37,130.43,126.84,124.13Z" style="fill:#fff"/><path d="M125.94,106.71c.3-.2.59-.42.9-.61-.7-1.94-1.65-3.09-2.7-3.22s-2.44,1-3.6,2.89a27.61,27.61,0,0,0-2.86,7.89A43.26,43.26,0,0,1,125.94,106.71Z" style="fill:#fff"/><path d="M112.42,128.34c.63.57,1.81.6,3.26.08a44.91,44.91,0,0,1,0-10.3C112.4,122.69,111,126.94,112.42,128.34Z" style="fill:#fff"/><path d="M60.39,15.47C60,13.42,57,12.18,53.2,12.28l-.7,0h-.2c-.6.05-1.22.13-1.85.24A13.48,13.48,0,0,0,43.28,16a3.41,3.41,0,0,0-1.11,2.84,3.72,3.72,0,0,0,2.62,2.51l.14.05.5.17.51.12.19.05a15.83,15.83,0,0,0,6,0l.92-.19C57.58,20.42,60.81,17.83,60.39,15.47Z" style="fill:#fff"/><path d="M122.57,35.13c-1.4-16.51-14.14-31.63-34.84-31A65,65,0,0,1,122.57,35.13Z" style="fill:#fff"/><path d="M3.05,68.81c-.06-1.09-.11-2.19-.12-3.29a.83.83,0,0,0,0,.22,60.67,60.67,0,0,0,19.65,42.1c8.68,8,14.42,8.81,19.13,5.21a16.24,16.24,0,0,0,2-1.8,25.79,25.79,0,0,0,2.86-3.87h0l0-.06c11,3.58,23.06,6.79,34.22,4.5,0-.07,0-.2-.07-.28a27.11,27.11,0,0,1,7.47-25.26c.52-.52,1-1,1.6-1.5a31,31,0,0,1,29.31-6.38l.06.06a61.43,61.43,0,0,0,7.1-22.79l0-.2-.14-1a61.16,61.16,0,0,0-18.37-34.8C84.19-2.46,44.41-4.42,19.35,22.62A59.62,59.62,0,0,0,3,59.28v0H3a.18.18,0,0,1,0,.06.57.57,0,0,1,0,.12l0,.29v.16c-.17,2-.18,3.8-.16,5.63h0a.83.83,0,0,0,0,.22Q2.92,67.31,3.05,68.81ZM20.68,22.52a58.39,58.39,0,0,1,82.55-1.77c23.64,21.91-13.6,23-35.51,46.69C54,82.22,49.55,102.3,42.36,109.93c-4.32,4.58-9.62,4.67-18.49-3.54q-.72-.65-1.41-1.32A58.38,58.38,0,0,1,20.68,22.52Z" style="fill:#fff"/><path d="M151.62,197.16V144.64c-8,8.64-14.8,18-17.25,25.53C141.42,178.62,147.18,188.54,151.62,197.16Z" style="fill:#fff"/><polygon points="89.86 101.19 89.8 101.26 89.76 101.37 89.75 101.48 89.86 101.19" style="fill:#fff"/><path d="M84.72,101.11v0Z" style="fill:#fff"/><path d="M119.52,157l-.6-.51a59.44,59.44,0,0,1,12.66,10.58c4.31-8.48,12-17.64,20-24.85V100.63c-2.48-2-4-3.15-5.83-4.56l-.07-.06,0-.05c-1.1-.87-2.57-2-3.77-3h0l-.07-.06a32.3,32.3,0,0,0,9.77-6.1v-23a173.21,173.21,0,0,0-26.14,20.82l-.37-.07a30.89,30.89,0,0,0-3.66-.77c-6.33-.87-15,0-24.61,7.06l.16-.17-.26.18a29.81,29.81,0,0,1,10.59-7.68,25.68,25.68,0,0,1,9.94-1.84l-.08-.07a29.82,29.82,0,0,0-12.5-.33,25.24,25.24,0,0,0-13.86,7.53,24.42,24.42,0,0,0-6.11,12.66v.14c0,.18,0,.36-.06.55-.24,4,.18,6.69,1.16,4.88a.89.89,0,0,0,.08-.17,2,2,0,0,0,.1-.21l.14-.31c.18-.42.36-.84.54-1.22a2,2,0,0,1,.1-.21l.06-.21c.14-.36.32-.72.47-1.07a28.55,28.55,0,0,1,5.4-8c-.06.09-.11.19-.17.29l.27-.31a37.76,37.76,0,0,0-2.9,5.88L90,101l-.44,1.25c-2.38,9.4,1.56,13.34,5.58,12.62a6.71,6.71,0,0,0,3.2-1.73s0,0,0,0l-.18.21.27-.23-8.73,10.05-1.85,2.28c-.58.72-1.34,1.69-2.24,2.86a184.48,184.48,0,0,0-13.44,20.27,97.14,97.14,0,0,0-9,20.78c.53,6.23,5.49,8.37,9.57,9.5,5.19,1.43,11.35.75,17.47.12-.35-7.07,2.66-12.79,7.88-17.91l.55-.55c-3.42,5.74-5.32,12.24-4,18,.41-.05.86-.07,1.34-.11a50.41,50.41,0,0,1,7.27.07c.33,0,.65.06,1,.1a13.21,13.21,0,0,1,5.06,1.45l.08,0,.13.07.08,0,.39.2.23.16c.11.07.24.12.35.2a11.77,11.77,0,0,1,4.05,5.86c.42,1.49.3,2.83-.57,3.57l-.13.13a15.44,15.44,0,0,0,7.78-4.25,12.69,12.69,0,0,0,3.72-10.85,24.1,24.1,0,0,0-3.6-9.17,28.56,28.56,0,0,0-6-6.85c-2.17-1.75-4.33-2.8-6-2.77a64.38,64.38,0,0,0-16.37,3.28c-.74.25-1.45.46-2.14.66a68.61,68.61,0,0,0-17.47,6.5l0,0h0a7.51,7.51,0,0,1,.92-.77c1-.64,1.9-1.31,2.83-2l.08,0,.68-.43c10.25-7.45,18.2-16.19,20.72-24.71l0,.05v0l.06.05c1.08,1.15,2.41,2.58,3.34,3.59l-.06-.05h0l0,0,0,0,0,0,0,0,.07.06c5.47,6,7.71,8.5,8.91,9.63a3.13,3.13,0,0,0,1.56.92,18.67,18.67,0,0,1,5.13,2.84l.13.12.06.06.34.31ZM116.39,132c-2.9,1.3-5.18,1.41-6.43.25s-1.27-3.37-.3-6.17a34.69,34.69,0,0,1,6.23-10.24c.1-.11.18-.23.28-.34,1.06-6.41,3.11-11.46,5.42-13.86a4,4,0,0,1,3.25-1.53c1.67.2,3.06,2,4,5,3-1.53,5.44-1.58,6.75-.42,2.68,2.5,0,9.51-6.29,16.86-1,6.54-3.08,11.81-5.43,14.35a3.79,3.79,0,0,1-.32.38,4,4,0,0,1-3,1.25C118.72,137.26,117.27,135.3,116.39,132Z" style="fill:#fff"/><path d="M129.82,115.78c1.92-3,2.83-5.68,2.57-7.3a2,2,0,0,0-.54-1.12,2.86,2.86,0,0,0-2.46-.35l-.13,0A38.7,38.7,0,0,1,129.82,115.78Z" style="fill:#fff"/><path d="M117,127.85a30.48,30.48,0,0,0,8.7-6.81,27.51,27.51,0,0,0,2.13-2.49c.1-.85.16-1.72.2-2.58a34.71,34.71,0,0,0-.66-8.13,30.53,30.53,0,0,0-8.77,6.84l-1.4,1.51v.06c-.06.52-.13,1.08-.21,1.65,0,0,0,.09,0,.13A39.35,39.35,0,0,0,117,127.85Z" style="fill:#fff"/><path d="M40.68,12.51A51.62,51.62,0,0,0,22.29,25.64,56,56,0,0,0,7.22,66.71c1.22-1.71,2.49-3.39,3.81-5s2.56-3,3.9-4.52a2.62,2.62,0,0,0,.22-.25c.73-.78,1.46-1.55,2.21-2.31l0,0c1.43-1.46,2.9-2.87,4.4-4.25s3.25-2.88,4.93-4.25c.81-.66,1.63-1.31,2.46-1.94q2-1.51,4-2.92c.69-.48,1.39-1,2.08-1.42,1.39-.92,2.78-1.82,4.2-2.67a103.94,103.94,0,0,1,28-11.74c2.91-.74,5.85-1.34,8.8-1.8,1-.16,2-.3,3-.42q3-.36,5.93-.54c1.48-.09,3-.14,4.45-.15.76,0,1.53,0,2.29,0a84.68,84.68,0,0,1,11,.89l0,0C85.88,8.55,61,3.91,40.68,12.51Zm12.36,9-.92.19a15.63,15.63,0,0,1-6,0l-.19-.05-.51-.12-.5-.17-.14-.05a3.68,3.68,0,0,1-2.62-2.51A3.35,3.35,0,0,1,43.28,16a13.37,13.37,0,0,1,7.17-3.38c.63-.11,1.25-.19,1.85-.24h.2l.7,0c3.81-.1,6.83,1.14,7.19,3.19C60.83,17.83,57.58,20.42,53,21.49Z" style="fill:#aec2db"/><path d="M60.39,15.47C60,13.42,57,12.18,53.2,12.28,57,12.18,60,13.42,60.39,15.47Z" style="fill:#aec2db"/><path d="M42.17,18.79a3.68,3.68,0,0,0,2.62,2.51A3.72,3.72,0,0,1,42.17,18.79Z" style="fill:#aec2db"/><path d="M43.28,16a3.35,3.35,0,0,0-1.11,2.84A3.41,3.41,0,0,1,43.28,16Z" style="fill:#aec2db"/><path d="M126.32,55.68a61.44,61.44,0,0,1-7,22.85c1.08.34,2.2.75,2.83,1A28.47,28.47,0,0,1,125,80.8,62.23,62.23,0,0,0,126.32,55.68Z" style="fill:#aec2db"/><path d="M76.2,125.89c.31,0,.63-.11.94-.18s.88-.17,1.31-.27c.81-.18,1.61-.36,2.41-.57l.22-.06c.7-.19,1.39-.39,2.09-.6l.29-.09c.77-.23,1.53-.48,2.3-.75-.29-.45-.56-.89-.82-1.35-.53-.91-1-1.84-1.46-2.78a36.64,36.64,0,0,1-2.55-7.43l-.08,0v0c-11.17,2.32-23.26-.89-34.27-4.47a26.31,26.31,0,0,1-2.83,3.81,15,15,0,0,1-2,1.85C37,116.7,31.26,116,22.54,107.89A60.72,60.72,0,0,1,3.05,68.81a61.17,61.17,0,0,0,18.36,40.36l.89.86c.41.39.83.77,1.25,1.15.8.71,1.6,1.41,2.43,2.07l.33.26c.79.62,1.58,1.23,2.4,1.81l.33.24c.45.32.92.63,1.38.94l.69.46,1.12.7,1,.61.92.52,1.24.7.77.4,1.41.72.72.33c.5.24,1,.48,1.51.7l.77.32c.49.21,1,.43,1.49.62.34.14.68.25,1,.38l1.3.48c.78.27,1.56.53,2.36.77l0,0A62.27,62.27,0,0,0,76.2,125.89Z" style="fill:#aec2db"/><path d="M46.63,107.33l0,.06c11,3.58,23.1,6.79,34.27,4.47v0C69.69,114.12,57.62,110.91,46.63,107.33Z" style="fill:#aec2db"/><path d="M22.61,107.84A60.67,60.67,0,0,1,3,65.74a.83.83,0,0,1,0-.22c0,1.1.06,2.2.12,3.29a60.72,60.72,0,0,0,19.49,39.08c8.72,8.08,14.47,8.81,19.2,5.16C37,116.65,31.29,115.89,22.61,107.84Z" style="fill:#aec2db"/><path d="M73.18,140.41c.86-1.44,1.76-2.87,2.72-4.32a17.52,17.52,0,0,1-12.76-6.46,56.14,56.14,0,0,1-5.88-.43,18.31,18.31,0,0,0,1,1.59c.24.37.49.73.76,1.07s.32.43.49.64A22.2,22.2,0,0,0,73.18,140.41Z" style="fill:#aec2db"/><path d="M28.87,118.73l0,0a1.67,1.67,0,0,1-.59-.42c-.92-.62-1.82-1.27-2.7-1.94S23.81,115,23,114.26c-.56-.48-1.12-1-1.66-1.46A61.75,61.75,0,0,1,16,107.36a3.91,3.91,0,0,1-.76-.86h0A64.4,64.4,0,0,1,6.68,93.36a37.87,37.87,0,0,0,.75,5,35.05,35.05,0,0,0,1.42,4.82,32.18,32.18,0,0,0,2.09,4.54,30.18,30.18,0,0,0,1.77,2.81,27.66,27.66,0,0,0,5.82,6,34.42,34.42,0,0,0,8.17,4.83,35.44,35.44,0,0,0,4.49,1.53,34.86,34.86,0,0,0,4.68.91c.76.1,1.53.16,2.29.22l.29,0c-.84-.37-1.66-.76-2.47-1.16A65.59,65.59,0,0,1,28.87,118.73Z" style="fill:#aec2db"/><path d="M86.13,106a2.44,2.44,0,0,0-.1.24.43.43,0,0,0,0,.07l0,.06a.69.69,0,0,1-.07.15.89.89,0,0,1-.08.17c-1,2-1.49-.68-1.23-4.8A29.19,29.19,0,0,0,85.47,114v-.14c0-.53,0-1,0-1.54V112a22.67,22.67,0,0,1,1.31-7.47l-.09.19C86.49,105.12,86.31,105.53,86.13,106Z" style="fill:#aec2db"/><path d="M86.13,106l-.14.31a.43.43,0,0,1,0-.07A2.44,2.44,0,0,1,86.13,106Z" style="fill:#aec2db"/><path d="M86.13,106c.18-.43.36-.84.54-1.22C86.49,105.12,86.31,105.54,86.13,106Z" style="fill:#aec2db"/><path d="M95.13,114.85c-4,.83-8-3-5.79-12.28a30.1,30.1,0,0,0-1.46,6.36,29.13,29.13,0,0,0,1.86,14.22l8.46-9.82A6.58,6.58,0,0,1,95.13,114.85Z" style="fill:#aec2db"/><path d="M98.38,113.12s0,0,0,0a6.71,6.71,0,0,1-3.2,1.73,6.58,6.58,0,0,0,3.07-1.52Z" style="fill:#aec2db"/><path d="M134.18,170.3c2.52-7.66,9.44-17.05,17.44-25.73v-2.25c-8.08,7.23-15.73,16.39-20,24.84l-.06,0-.06.1a59.9,59.9,0,0,0-12-10.17c2.92,2.56,6.35,6.79,9.53,13.9,1.9,2.28,4.52,5.55,6.54,8.23l.25.24.31.41.07.07c4.76,6.4,10.14,14.14,15.4,22v-4.27C147.15,188.91,141.33,178.84,134.18,170.3Z" style="fill:#aec2db"/><path d="M131.52,167.21l.06-.1a59.44,59.44,0,0,0-12.66-10.58l.6.51A59.9,59.9,0,0,1,131.52,167.21Z" style="fill:#aec2db"/><path d="M134.18,170.3c7.15,8.54,13,18.61,17.44,27.33v-.47c-4.44-8.62-10.2-18.54-17.25-27,2.45-7.57,9.29-16.89,17.25-25.53v-.07C143.62,153.25,136.7,162.64,134.18,170.3Z" style="fill:#aec2db"/><path d="M145.81,95.43c.05-.06.08-.12.15-.2.6-.74,2.13-2.37,5.66-6.14V86.88a32.25,32.25,0,0,1-9.7,6.06c1.18,1,2.66,2.14,3.75,3C145.6,95.83,145.62,95.68,145.81,95.43Z" style="fill:#aec2db"/><path d="M151.62,86.78a32.3,32.3,0,0,1-9.77,6.1l.07.06a32.25,32.25,0,0,0,9.7-6.06Z" style="fill:#aec2db"/><path d="M113.92,190.31l.12-.13c.88-.77,1-2.1.61-3.58a12.12,12.12,0,0,0-4.07-5.84,14.87,14.87,0,0,0-1.29-.74,19.52,19.52,0,0,0-3.71-1.18c-.44-.09-.88-.17-1.33-.23l-1-.1a50.53,50.53,0,0,0-7.28-.07c-.47,0-.92.06-1.33.11-1.34-5.78.53-12.3,4-18l-.53.52c-5.2,5.13-8.2,10.85-7.86,17.9h0v0c-6.13.64-12.26,1.34-17.49-.11-4.08-1.14-9-3.28-9.58-9.51l0,.07h0l-.21.7a18.54,18.54,0,0,0-.58,4.45v.25a7.22,7.22,0,0,0,.08.8,1.1,1.1,0,0,0,.06.26,3.44,3.44,0,0,0,.22.71l.09.08h0a2,2,0,0,0,.43.61c3.12,2.83,13.6,4.75,17.76,5.19,6.25.66,18.08.55,18.39.68,3.78.42,6.09,2.25,9.1,4.76h0a24.12,24.12,0,0,0-5.92-1.48,11,11,0,0,0,1.09,1.17A11.14,11.14,0,0,0,113.92,190.31Z" style="fill:#aec2db"/><path d="M109.29,180l0,0h0l0,0Z" style="fill:#aec2db"/><path d="M109.42,180.07l.13.07-.13-.07-.08,0h0Z" style="fill:#aec2db"/><path d="M114,190.18l-.12.13h0l.13-.13c.87-.74,1-2.08.57-3.57C115.05,188.08,114.92,189.41,114,190.18Z" style="fill:#aec2db"/><path d="M98.13,161.05c-5.22,5.12-8.23,10.84-7.88,17.91h0C89.93,171.9,92.93,166.18,98.13,161.05Z" style="fill:#aec2db"/><path d="M104.25,178.61c.45.06.89.14,1.33.23a19.52,19.52,0,0,1,3.71,1.18A13.42,13.42,0,0,0,104.25,178.61Z" style="fill:#aec2db"/><path d="M105.58,178.84a19.52,19.52,0,0,1,3.71,1.18h0A19.52,19.52,0,0,0,105.58,178.84Z" style="fill:#aec2db"/><path d="M109.63,180.18l-.29-.14,0,0a14.87,14.87,0,0,1,1.29.74,3.78,3.78,0,0,0-.33-.22c-.2-.13-.41-.24-.62-.36Z" style="fill:#aec2db"/><path d="M109.34,180l.29.14-.08,0-.13-.07Z" style="fill:#aec2db"/><path d="M109.63,180.18l-.08,0,.08,0Z" style="fill:#aec2db"/><polygon points="109.63 180.19 109.63 180.18 109.63 180.18 109.63 180.19" style="fill:#aec2db"/><path d="M110.25,180.54l-.23-.16-.39-.2C109.84,180.3,110.05,180.41,110.25,180.54Z" style="fill:#aec2db"/><path d="M110,180.38l-.39-.2h0Z" style="fill:#aec2db"/><path d="M87.15,158.72l7.67-8.28c2.38-2.59,4-4.37,5.14-5.55l.77-.83a7.4,7.4,0,0,1,1.62-1.54.25.25,0,0,1,.12,0,.63.63,0,0,0-.19-.05.2.2,0,0,1,.17,0l0,0c-.92-1-2.21-2.4-3.3-3.55-2.57,8.48-10.51,17.2-20.71,24.68.49-.31,1-.59,1.47-.89.18-.12.37-.23.56-.34,1.49-.89,3-1.75,4.4-2.52Z" style="fill:#aec2db"/><path d="M102.5,142.53h0l.06.05c-.93-1-2.26-2.44-3.34-3.59l-.06-.05v0c1.09,1.15,2.38,2.55,3.3,3.55Z" style="fill:#aec2db"/><path d="M102.52,142.55l0,0h0Z" style="fill:#aec2db"/><path d="M102.45,142.49a.2.2,0,0,0-.17,0,.63.63,0,0,1,.19.05h0l0,0Z" style="fill:#aec2db"/><path d="M87.17,158.74C95.24,150,99,146,100.75,144.08l-.79.81-5.14,5.55C92.84,152.59,90.35,155.31,87.17,158.74Z" style="fill:#aec2db"/><path d="M100,144.89c-1.13,1.18-2.76,3-5.14,5.55Z" style="fill:#aec2db"/><path d="M136.24,180.06l-.07-.07-.31-.42a2.73,2.73,0,0,1-.25-.23c-2-2.68-4.64-6-6.54-8.23-3.45-7.54-7.1-11.92-10.14-14.41l-.46-.43-.06-.06h0a18.67,18.67,0,0,0-5.13-2.84,3.29,3.29,0,0,1-1.69-1c-1.16-1.06-3.35-3.52-9-9.71,0-.06-.11-.1-.19-.06a7,7,0,0,0-1.63,1.54c-1.76,1.9-5.43,6-13.58,14.65l-2.25,1.17c-1.44.78-3,1.59-4.44,2.49-.19.11-.38.22-.56.34-.49.3-1,.6-1.43.92l-.77.38-.1.06c-.93.66-1.88,1.32-2.83,2a7.91,7.91,0,0,0-.88.75,68.31,68.31,0,0,1,17.45-6.49c.69-.21,1.4-.41,2.14-.67a64.8,64.8,0,0,1,16.37-3.27c1.67,0,3.81,1,6,2.79a28.35,28.35,0,0,1,6,6.85,24.12,24.12,0,0,1,3.62,9.15,12.66,12.66,0,0,1-3.74,10.87,15.41,15.41,0,0,1-7.83,4.28h0a11.18,11.18,0,0,1-10.21-2.7,12.29,12.29,0,0,1-1.1-1.18,24.12,24.12,0,0,1,5.92,1.48c-3-2.5-5.31-4.33-9.09-4.75-.31-.13-12.14,0-18.39-.68-4.16-.44-14.68-2.33-17.77-5.19h0a2.22,2.22,0,0,1-.43-.62l-.09-.08h0a2.92,2.92,0,0,1-.22-.71,1.1,1.1,0,0,1-.06-.26,7.22,7.22,0,0,1-.08-.8v-.25a18.54,18.54,0,0,1,.58-4.45l.2-.66-.07.08.07-.08,0-.11a98.44,98.44,0,0,1,9-20.79,178.86,178.86,0,0,1,13.44-20.27l2.2-2.85,1.89-2.29a29.11,29.11,0,0,1-1.89-14.21,29.72,29.72,0,0,1,1.57-6.69c0,.11,0,.21-.08.32,0-.11.07-.22.11-.33l.31-.87v-.08l-.09.11.11-.29,0,.18,0,0,.09-.26-.09.09a37.42,37.42,0,0,1,2.73-5.58,28.56,28.56,0,0,0-5.13,7.72c-.21.41-.42.84-.63,1.3v0c.19-.41.39-.81.58-1.18-.16.36-.33.71-.47,1.07a22.78,22.78,0,0,0-1.38,7.71v.21c0,.51,0,1,0,1.53v.17s0-.06,0-.09v0a29.13,29.13,0,0,1-.92-12.21c0-.2,0-.38.06-.56v-.14a24.43,24.43,0,0,1,6.11-12.65,25.22,25.22,0,0,1,14-7.55,29.79,29.79,0,0,1,12.6.31l.09.09h-.1a26.62,26.62,0,0,0-10,1.83A29.81,29.81,0,0,0,97,90.63c9.64-6.95,18.2-7.8,24.45-6.89a30.41,30.41,0,0,1,3.76.76l.27.08a173.51,173.51,0,0,1,26.14-20.83V60.18A126.87,126.87,0,0,0,128.4,77.86a64.59,64.59,0,0,0-3.07-36.54C127.28,19,108.75-3.1,80.48,1.93A64.85,64.85,0,0,0,3.61,86.19c-1.79,27.37,20.29,43,41.43,40.42a64.18,64.18,0,0,0,9.09,2.14A24.64,24.64,0,0,0,71.7,142.87c-2.67,4.67-4.9,9.12-6.64,13a124.33,124.33,0,0,0-5.45,13.57c-1.73,6.56-2.54,9.42,4.94,12.63a58.89,58.89,0,0,0,15.24,3.78,105.82,105.82,0,0,0,16.31.74c3.16-.29,4.58,3.14,7.38,5,5.67,3.78,16.33,4.1,23.14-6.49a14.74,14.74,0,0,0,2.76-7.29c7.85,9.93,12,16.41,22.24,31.31v-7C146.36,194.19,141,186.46,136.24,180.06Zm-44-23.37c.8-.84,5.9-6.25,9.42-10.35l6.27,6.66C104.53,153.21,95.42,155.77,92.2,156.69ZM77.69,133.45a14.66,14.66,0,0,1-10.91-3.81,63.84,63.84,0,0,0,15.54-2.38C80.67,129.3,79.15,131.39,77.69,133.45Zm44.88-98.32a65,65,0,0,0-34.84-31C108.41,3.48,121.22,18.56,122.57,35.13ZM38.48,124.05l-.32,0a16.93,16.93,0,0,1-2.29-.22,34.86,34.86,0,0,1-4.68-.91,35.44,35.44,0,0,1-4.49-1.53,34.42,34.42,0,0,1-8.17-4.83,27.66,27.66,0,0,1-5.82-6,30.18,30.18,0,0,1-1.77-2.81,32.18,32.18,0,0,1-2.09-4.54,35.05,35.05,0,0,1-1.42-4.82,37.87,37.87,0,0,1-.75-5,64.67,64.67,0,0,0,8.57,13.14h0a3.91,3.91,0,0,1,.76.86,61.75,61.75,0,0,0,5.29,5.44c.54.5,1.1,1,1.66,1.46.85.72,1.72,1.41,2.6,2.09s1.78,1.32,2.7,1.94a2.1,2.1,0,0,1,.59.42l0,0A65.64,65.64,0,0,0,36,122.87c.83.4,1.65.8,2.5,1.17h0Zm8.24.16c-.8-.24-1.58-.5-2.36-.77l-1.3-.48c-.33-.13-.67-.24-1-.38-.5-.19-1-.41-1.49-.62l-.77-.32c-.51-.22-1-.46-1.51-.7l-.72-.33-1.41-.72-.77-.4-1.24-.7-.92-.52-1-.61-1.12-.7-.69-.46c-.46-.31-.93-.62-1.38-.94l-.33-.24c-.82-.58-1.61-1.19-2.4-1.81l-.33-.26c-.83-.67-1.63-1.36-2.43-2.07-.42-.37-.83-.76-1.25-1.15l-.89-.86a60.44,60.44,0,0,1-6.15-6.92,62.77,62.77,0,0,1-3.58-5.38A61.76,61.76,0,0,1,2.81,65.56h0A49.35,49.35,0,0,1,3,59.92H3v-.16l0-.29a.57.57,0,0,0,0-.12.18.18,0,0,0,0-.06H3v0A59.67,59.67,0,0,1,19.3,22.58C44.38-4.48,84.19-2.5,107.78,19.7A61.09,61.09,0,0,1,126.2,54.55l.14,1A62.13,62.13,0,0,1,125,80.8a28.47,28.47,0,0,0-2.81-1.28c-.64-.25-1.79-.67-2.84-1v0l-.06,0,0,0-.08.15-.1-.1a31,31,0,0,0-29.19,6.27c-.52.47-1,.95-1.54,1.45a27.08,27.08,0,0,0-7.46,25.26c.07.07.06.21.08.31a36.64,36.64,0,0,0,2.55,7.43c.44.94.93,1.87,1.46,2.78.26.46.53.9.82,1.35-.77.27-1.53.52-2.3.75l-.29.09c-.7.21-1.39.41-2.09.6l-.22.06c-.8.21-1.6.39-2.41.57-.43.1-.87.19-1.31.27s-.63.13-.94.18a60.21,60.21,0,0,1-7,.9A61.94,61.94,0,0,1,46.72,124.21Zm16.71,12.12a21.65,21.65,0,0,1-3.94-3.83c-.17-.21-.33-.42-.49-.64s-.52-.7-.76-1.07-.68-1-1-1.59c2,.23,3.93.38,5.88.43a17.52,17.52,0,0,0,12.76,6.46q-1.45,2.21-2.7,4.32h0l0,.06A22,22,0,0,1,63.43,136.33Zm-.29,33.06-.11.11Z" style="fill:#3b557d"/><path d="M3,59.93H3s0,0,0,0Z" style="fill:#3b557d"/><path d="M126.32,55.68a1,1,0,0,1,0-.16.88.88,0,0,0,0,.16Z" style="fill:#3b557d"/><path d="M145.81,95.43c-.2.3-.2.44-.08.54l.07.07-.13-.1v0l.17.13c1.8,1.4,3.33,2.57,5.77,4.51V96.51l-2.15-1.74c.69-.69,1.42-1.43,2.15-2.19V89.11c-3.54,3.78-5.08,5.41-5.67,6.16Z" style="fill:#3b557d"/><path d="M84.62,101.13v0Z" style="fill:#3b557d"/><path d="M3,59.77v.16H3Z" style="fill:#3b557d"/><path d="M3,59.93H3s0,0,0,0a49.35,49.35,0,0,0-.16,5.64h0C2.79,63.73,2.8,61.89,3,59.93Z" style="fill:#3b557d"/><polygon points="2.97 59.93 2.97 59.93 2.97 59.94 2.97 59.93" style="fill:#3b557d"/><path d="M3,59.28v0H3Z" style="fill:#3b557d"/><path d="M89.85,84.79A31,31,0,0,1,119,78.52l.1.1.08-.15-.06-.06A31,31,0,0,0,89.85,84.79Z" style="fill:#3b557d"/><path d="M126.15,54.5l.14,1,0,.2a.88.88,0,0,1,0-.16l-.14-1A61.09,61.09,0,0,0,107.78,19.7,61.16,61.16,0,0,1,126.15,54.5Z" style="fill:#3b557d"/><path d="M72.21,148.56a184.48,184.48,0,0,1,13.44-20.27A178.86,178.86,0,0,0,72.21,148.56Z" style="fill:#3b557d"/><polygon points="89.76 101.3 89.76 101.37 89.8 101.26 89.76 101.3" style="fill:#3b557d"/><path d="M118.41,156.21l.06.06-.06-.06Z" style="fill:#3b557d"/><path d="M87.3,103.25c-.15.35-.33.71-.47,1.07l-.06.21c.21-.46.42-.89.63-1.3a28.56,28.56,0,0,1,5.13-7.72c.06-.1.11-.2.17-.29A28.55,28.55,0,0,0,87.3,103.25Z" style="fill:#3b557d"/><path d="M102.68,142.7l-.07-.06,0,0c5.66,6.19,7.85,8.65,9,9.71C110.39,151.2,108.15,148.7,102.68,142.7Z" style="fill:#3b557d"/><path d="M74.82,166.05a7.51,7.51,0,0,0-.92.77h0a7.91,7.91,0,0,1,.88-.75c1-.64,1.9-1.3,2.83-2l.1-.06-.08,0C76.72,164.74,75.78,165.41,74.82,166.05Z" style="fill:#3b557d"/><path d="M113.93,190.32h0a15.41,15.41,0,0,0,7.83-4.28A15.44,15.44,0,0,1,114,190.3Z" style="fill:#3b557d"/><path d="M145.68,96l0,.05.07.06c1.81,1.41,3.35,2.59,5.83,4.56v0c-2.44-1.94-4-3.11-5.77-4.51Z" style="fill:#3b557d"/><path d="M96.74,90.81l.26-.18a29.81,29.81,0,0,1,10.33-7.5A29.81,29.81,0,0,0,96.74,90.81Z" style="fill:#3b557d"/><path d="M151.62,63.75a173.51,173.51,0,0,0-26.14,20.83,173.21,173.21,0,0,1,26.14-20.82Z" style="fill:#3b557d"/><path d="M125.48,84.58l-.27-.08a30.41,30.41,0,0,0-3.76-.76,30.89,30.89,0,0,1,3.66.77Z" style="fill:#3b557d"/><path d="M121.85,166a28.35,28.35,0,0,0-6-6.85A28.56,28.56,0,0,1,121.85,166Z" style="fill:#3b557d"/><path d="M117.19,81.22l.08.07h.11l-.09-.09a29.79,29.79,0,0,0-12.6-.31A29.82,29.82,0,0,1,117.19,81.22Z" style="fill:#3b557d"/><polygon points="89.67 101.4 89.76 101.3 89.78 101.11 89.67 101.4" style="fill:#3b557d"/><path d="M125,80.8a62.13,62.13,0,0,0,1.38-25.28,1,1,0,0,0,0,.16A62.23,62.23,0,0,1,125,80.8Z" style="fill:#3b557d"/><path d="M119.31,78.55c1,.3,2.2.72,2.84,1-.63-.24-1.75-.65-2.83-1Z" style="fill:#3b557d"/><path d="M125,80.8a28.47,28.47,0,0,0-2.81-1.28A28.47,28.47,0,0,1,125,80.8Z" style="fill:#3b557d"/><path d="M23.55,111.18c-.42-.38-.84-.76-1.25-1.15C22.72,110.42,23.13,110.81,23.55,111.18Z" style="fill:#3b557d"/><path d="M15.26,102.25a60.44,60.44,0,0,0,6.15,6.92,62.08,62.08,0,0,1-9.73-12.3A62.77,62.77,0,0,0,15.26,102.25Z" style="fill:#3b557d"/><path d="M26,113.25c-.83-.66-1.63-1.36-2.43-2.07C24.35,111.89,25.15,112.58,26,113.25Z" style="fill:#3b557d"/><path d="M22.3,110l-.89-.86Z" style="fill:#3b557d"/><path d="M69.24,126.79a60.21,60.21,0,0,0,7-.9,62.27,62.27,0,0,1-29.44-1.73l0,0A61.94,61.94,0,0,0,69.24,126.79Z" style="fill:#3b557d"/><path d="M73.2,140.41q1.24-2.11,2.7-4.32c-1,1.45-1.86,2.88-2.72,4.32Z" style="fill:#3b557d"/><path d="M57.26,129.2a56.14,56.14,0,0,0,5.88.43C61.19,129.58,59.22,129.43,57.26,129.2Z" style="fill:#3b557d"/><path d="M58.24,130.79a18.31,18.31,0,0,1-1-1.59C57.56,129.75,57.89,130.27,58.24,130.79Z" style="fill:#3b557d"/><path d="M15.25,106.5h0A64.67,64.67,0,0,1,6.68,93.36a64.4,64.4,0,0,0,8.57,13.14Z" style="fill:#3b557d"/><path d="M28.85,118.71l0,0,0,0a2.1,2.1,0,0,0-.59-.42c-.92-.62-1.82-1.27-2.7-1.94.88.67,1.78,1.32,2.7,1.94A1.67,1.67,0,0,0,28.85,118.71Z" style="fill:#3b557d"/><path d="M38.48,124.05h0l-.29,0Z" style="fill:#3b557d"/><path d="M85.46,112.29c0,.51,0,1,0,1.54V114s0,.06,0,.09v-.17c0-.52,0-1,0-1.53v-.21a22.78,22.78,0,0,1,1.38-7.71c.14-.36.31-.71.47-1.07-.19.37-.39.77-.58,1.18A22.67,22.67,0,0,0,85.45,112Z" style="fill:#3b557d"/><path d="M87.88,108.93a30.1,30.1,0,0,1,1.46-6.36c0-.11,0-.21.08-.32a29.72,29.72,0,0,0-1.57,6.69,29.11,29.11,0,0,0,1.89,14.21A29.13,29.13,0,0,1,87.88,108.93Z" style="fill:#3b557d"/><path d="M145.67,95.94l.13.1-.07-.07c-.12-.1-.12-.24.08-.54C145.62,95.68,145.6,95.83,145.67,95.94Z" style="fill:#3b557d"/><path d="M99.42,183.17c-.31-.13-12.14,0-18.39-.68-4.16-.44-14.64-2.36-17.76-5.19h0c3.09,2.86,13.61,4.75,17.77,5.19,6.25.66,18.08.55,18.39.68,3.78.42,6.08,2.25,9.09,4.75h0C105.51,185.42,103.2,183.59,99.42,183.17Z" style="fill:#3b557d"/><path d="M103.7,187.63a11.18,11.18,0,0,0,10.21,2.7v0A11.14,11.14,0,0,1,103.7,187.63Z" style="fill:#3b557d"/><path d="M62.74,176.6l.09.08-.09-.08Z" style="fill:#3b557d"/><path d="M114,190.3h0v0h0Z" style="fill:#3b557d"/><path d="M20.72,23.89a58.38,58.38,0,0,0,3.15,82.5c8.87,8.21,14.17,8.11,18.49,3.54C49.55,102.3,54,82.23,67.72,67.44c21.91-23.65,59.15-24.78,35.51-46.69A58.39,58.39,0,0,0,20.72,23.89Zm82.19-.5h0a84.68,84.68,0,0,0-11-.89c-.76,0-1.53,0-2.29,0-1.48,0-3,.06-4.45.15q-3,.18-5.93.54c-1,.12-2,.26-3,.42-3,.46-5.89,1.06-8.8,1.8a103.94,103.94,0,0,0-28,11.74c-1.42.85-2.81,1.75-4.2,2.67-.69.46-1.39.94-2.08,1.42q-2,1.41-4,2.92c-.83.63-1.65,1.28-2.46,1.94q-2.52,2.05-4.93,4.25c-1.5,1.38-3,2.79-4.4,4.25l0,0c-.75.76-1.48,1.53-2.21,2.31a2.62,2.62,0,0,1-.22.25c-1.34,1.47-2.65,3-3.9,4.52s-2.59,3.31-3.81,5A56,56,0,0,1,22.29,25.64,51.5,51.5,0,0,1,40.68,12.51C61,3.9,85.91,8.53,102.89,23.37Z" style="fill:#3b557d"/><path d="M23.87,106.39c8.87,8.21,14.17,8.12,18.49,3.54C38,114.5,32.74,114.6,23.87,106.39Z" style="fill:#3b557d"/><path d="M23.87,106.39a58.38,58.38,0,1,1,79.36-85.64,58.38,58.38,0,1,0-80.77,84.32Q23.15,105.75,23.87,106.39Z" style="fill:#3b557d"/><path d="M40.68,12.51c20.35-8.6,45.2-4,62.21,10.86C85.91,8.53,61,3.9,40.68,12.51Z" style="fill:#3b557d"/><path d="M33.18,41.23q-2,1.41-4,2.92Q31.15,42.64,33.18,41.23Z" style="fill:#3b557d"/><path d="M102.91,23.39h0a84.68,84.68,0,0,0-11-.89A84.68,84.68,0,0,1,102.91,23.39Z" style="fill:#3b557d"/><path d="M85.15,22.64c1.48-.09,3-.14,4.45-.15C88.12,22.5,86.63,22.55,85.15,22.64Z" style="fill:#3b557d"/><path d="M89.6,22.49c.76,0,1.53,0,2.29,0C91.13,22.49,90.36,22.48,89.6,22.49Z" style="fill:#3b557d"/><path d="M14.93,57.17c-1.34,1.47-2.65,3-3.9,4.52C12.28,60.15,13.59,58.64,14.93,57.17Z" style="fill:#3b557d"/><path d="M115.75,118v0a.61.61,0,0,0,.07-.1Z" style="fill:#3b557d"/><path d="M110,132.2c1.25,1.16,3.5,1.07,6.42-.26.89,3.34,2.34,5.29,4.11,5.48a4,4,0,0,0,3-1.22,2.6,2.6,0,0,0,.3-.36c2.35-2.53,4.44-7.81,5.43-14.34,6.27-7.36,8.91-14.43,6.28-16.86-1.28-1.19-3.66-1.07-6.75.41-.89-3-2.28-4.75-4-4.94a3.93,3.93,0,0,0-3.23,1.5c-2.31,2.4-4.34,7.45-5.4,13.83l-.3.37a35.38,35.38,0,0,0-6.23,10.24C108.71,128.84,108.75,131.05,110,132.2ZM129.26,107l.13,0a2.89,2.89,0,0,1,2.46.3,2.06,2.06,0,0,1,.54,1.17c.28,1.6-.63,4.28-2.57,7.34v0l0,0,0,0a38.57,38.57,0,0,0-.56-8.78h0Zm-8.83,27.53,0,.07c-1.07-.13-2-1.3-2.74-3.32h0l0-.07a40,40,0,0,0,9.19-7.24l0,.12,0,0C125.46,130.41,122.77,134.88,120.43,134.57Zm.11-28.8c1.15-2,2.43-3,3.62-2.91s2,1.28,2.7,3.22l0,0h0c-.31.19-.6.4-.9.6a43.36,43.36,0,0,0-8.25,7l0,.06a.83.83,0,0,1,0-.15l-.07.06,0,.06A28.48,28.48,0,0,1,120.54,105.77Zm-3.64,12.37,0-.24c.08-.57.15-1.13.21-1.65v0h0s0-.07,0-.11l1.41-1.52a30.39,30.39,0,0,1,8.77-6.84A34.14,34.14,0,0,1,128,116c0,.93-.11,1.86-.22,2.79-.63.73-1.36,1.56-2.11,2.37l0,0a30.69,30.69,0,0,1-8.7,6.82A39.43,39.43,0,0,1,116.9,118.14Zm-1.16-.15v0l.06-.07a.61.61,0,0,1-.07.1.57.57,0,0,1,0,.13,1,1,0,0,1,.08-.11v0l.07-.07a.61.61,0,0,1-.07.1,45.48,45.48,0,0,0-.06,10.43c-1.54.51-2.72.47-3.31-.07l0,0h0l0,0C110.88,127,112.33,122.63,115.74,118Z" style="fill:#3b557d"/><path d="M126.87,124a40,40,0,0,1-9.19,7.24l0,.07a40,40,0,0,0,9.13-7.19Z" style="fill:#3b557d"/><path d="M124.14,102.88c1,.13,2,1.28,2.7,3.22l0,0c-.69-1.94-1.65-3.09-2.7-3.22s-2.47,1-3.62,2.91C121.7,103.83,123,102.75,124.14,102.88Z" style="fill:#3b557d"/><path d="M117.68,113.66a.83.83,0,0,0,0,.15l0-.06a43.36,43.36,0,0,1,8.25-7A43.26,43.26,0,0,0,117.68,113.66Z" style="fill:#3b557d"/><path d="M115.81,118v0a.61.61,0,0,0,.07-.1Z" style="fill:#3b557d"/><path d="M115.68,128.42c-1.45.52-2.63.49-3.26-.08l0,0c.59.54,1.77.58,3.31.07a45.48,45.48,0,0,1,.06-10.43,1,1,0,0,0-.08.11A44.91,44.91,0,0,0,115.68,128.42Z" style="fill:#3b557d"/><path d="M109.66,126.05a35.38,35.38,0,0,1,6.23-10.24A34.69,34.69,0,0,0,109.66,126.05Z" style="fill:#3b557d"/><path d="M124.82,100.11c1.67.19,3.06,1.94,4,4.94,3.09-1.48,5.47-1.6,6.75-.41,2.63,2.43,0,9.5-6.28,16.86-1,6.53-3.08,11.81-5.43,14.34a2.6,2.6,0,0,1-.3.36,3.79,3.79,0,0,0,.32-.38c2.35-2.54,4.44-7.81,5.43-14.35,6.28-7.35,9-14.36,6.29-16.86-1.31-1.16-3.71-1.11-6.75.42-.9-3-2.29-4.75-4-5a4,4,0,0,0-3.25,1.53A3.93,3.93,0,0,1,124.82,100.11Z" style="fill:#3b557d"/><path d="M129.82,115.78v0c1.94-3.06,2.85-5.74,2.57-7.34C132.65,110.1,131.74,112.75,129.82,115.78Z" style="fill:#3b557d"/><path d="M129.26,107h0l.13,0Z" style="fill:#3b557d"/><path d="M127.32,107.84A34.71,34.71,0,0,1,128,116a34.14,34.14,0,0,0-.64-8.25,30.39,30.39,0,0,0-8.77,6.84l-1.41,1.52s0,.08,0,.11l1.4-1.51A30.53,30.53,0,0,1,127.32,107.84Z" style="fill:#3b557d"/></g></g></svg>